<svg width="36" height="36" viewBox="0 0 36 36" fill="none" xmlns="http://www.w3.org/2000/svg">
<path d="M18 9C22.9706 9 27 13.0294 27 18C27 22.9706 22.9706 27 18 27C16.2904 27 14.6495 26.5218 13.2308 25.6338C12.6529 25.2721 12.1177 24.8457 11.6357 24.3636C11.1529 23.8808 10.726 23.3446 10.364 22.7657C9.4774 21.3478 9 19.7082 9 18C9 17.7258 9.01228 17.4531 9.0367 17.1823C9.07389 16.7697 9.43847 16.4655 9.85101 16.5026C10.2636 16.5398 10.5678 16.9044 10.5306 17.317C10.5103 17.543 10.5 17.7708 10.5 18C10.5 19.4249 10.8973 20.7893 11.6358 21.9704C11.9376 22.453 12.2937 22.9002 12.6964 23.303C13.0985 23.7051 13.5449 24.0608 14.0267 24.3623C15.2084 25.1021 16.5739 25.5 18 25.5C22.1421 25.5 25.5 22.1421 25.5 18C25.5 13.8579 22.1421 10.5 18 10.5C15.6027 10.5 13.3995 11.6328 11.9977 13.502L14.7542 13.5021C15.1684 13.5021 15.5042 13.8379 15.5042 14.2521C15.5042 14.6318 15.222 14.9456 14.856 14.9952L14.7542 15.0021H10.25C9.8703 15.0021 9.55651 14.7199 9.50685 14.3539L9.5 14.2521V9.75209C9.5 9.33788 9.83579 9.00209 10.25 9.00209C10.6297 9.00209 10.9435 9.28425 10.9932 9.65032L11 9.75209L10.999 12.3435C12.6859 10.256 15.2363 9 18 9ZM17.25 13C17.6295 13 17.9435 13.2823 17.9931 13.6483L18 13.75V18H20.25C20.664 18 21 18.336 21 18.75C21 19.1295 20.7177 19.4435 20.3517 19.4931L20.25 19.5H17.25C16.8705 19.5 16.5565 19.2177 16.5069 18.8517L16.5 18.75V13.75C16.5 13.336 16.836 13 17.25 13Z" fill="#65676B"/>
<rect x="0.5" y="0.5" width="35" height="35" rx="3.5" stroke="#65676B"/>
</svg>
