<svg width="13" height="13" viewBox="0 0 13 13" fill="none" xmlns="http://www.w3.org/2000/svg">
<path d="M8.86193 0.528758C9.12228 0.268409 9.54439 0.268409 9.80474 0.528758L12.4714 3.19543C12.7318 3.45577 12.7318 3.87788 12.4714 4.13823L3.80474 12.8049C3.67971 12.9299 3.51014 13.0002 3.33333 13.0002H0.666667C0.298477 13.0002 0 12.7017 0 12.3335V9.66683C0 9.49002 0.0702379 9.32045 0.195262 9.19543L6.86179 2.5289L8.86193 0.528758ZM7.33333 3.94297L1.33333 9.94297V11.6668H3.05719L9.05719 5.66683L7.33333 3.94297ZM10 4.72402L11.0572 3.66683L9.33333 1.94297L8.27614 3.00016L10 4.72402Z" fill="#00718A"/>
</svg>
