<svg width="32" height="32" viewBox="0 0 32 32" fill="none" xmlns="http://www.w3.org/2000/svg">
<rect width="32" height="32" rx="16" fill="#E6E6E7"/>
<path d="M10.6402 10.1098C10.4937 9.96339 10.2563 9.96339 10.1098 10.1098C9.96339 10.2563 9.96339 10.4937 10.1098 10.6402L12.734 13.2643C11.4778 14.1188 10.5425 15.4554 10.2101 17.0484C10.1678 17.2511 10.2979 17.4498 10.5006 17.4921C10.7034 17.5344 10.902 17.4043 10.9443 17.2016C11.2472 15.7502 12.1178 14.5472 13.2754 13.8057L14.465 14.9953C13.8047 15.4721 13.375 16.2484 13.375 17.125C13.375 18.5747 14.5503 19.75 16 19.75C16.8766 19.75 17.6529 19.3203 18.1297 18.66L21.3598 21.8902C21.5063 22.0366 21.7437 22.0366 21.8902 21.8902C22.0366 21.7437 22.0366 21.5063 21.8902 21.3598L10.6402 10.1098ZM17.5896 18.1199C17.258 18.6485 16.6701 19 16 19C14.9645 19 14.125 18.1605 14.125 17.125C14.125 16.455 14.4765 15.867 15.0051 15.5354L17.5896 18.1199ZM16.0926 14.5016L18.6234 17.0324C18.5757 15.6563 17.4687 14.5493 16.0926 14.5016ZM16 13C15.5726 13 15.1536 13.0551 14.7506 13.1596L14.1483 12.5573C14.7351 12.3575 15.3586 12.25 16 12.25C18.7701 12.25 21.2069 14.2548 21.7899 17.0484C21.8322 17.2511 21.7021 17.4498 21.4994 17.4921C21.2967 17.5344 21.098 17.4043 21.0557 17.2016C20.5431 14.7452 18.4042 13 16 13Z" fill="#00718A"/>
</svg>
