<svg width="32" height="32" viewBox="0 0 32 32" fill="none" xmlns="http://www.w3.org/2000/svg">
<rect width="32" height="32" rx="16" fill="#E6E6E7"/>
<path d="M10.9844 16.6247L10.9835 16.6282C10.9125 16.8948 10.6388 17.054 10.372 16.9833C9.94098 16.8691 10.0169 16.3719 10.0169 16.3719L10.0345 16.3105C10.0345 16.3105 10.0606 16.2264 10.0817 16.1653C10.1237 16.0433 10.188 15.8727 10.2793 15.6698C10.4615 15.2649 10.7544 14.7248 11.1988 14.1829C12.0963 13.0885 13.6051 12 16.0002 12C18.3952 12 19.904 13.0885 20.8016 14.1829C21.2459 14.7248 21.5388 15.2649 21.721 15.6698C21.8124 15.8727 21.8766 16.0433 21.9187 16.1653C21.9397 16.2264 21.9552 16.2754 21.9658 16.3105C21.9711 16.328 21.9752 16.342 21.9781 16.3524L21.9816 16.365L21.9827 16.3692L21.9832 16.3707L21.9835 16.3719C22.0542 16.6388 21.8952 16.9125 21.6283 16.9833C21.3618 17.054 21.0885 16.8956 21.0172 16.6294L21.0169 16.6282L21.0159 16.6247L21.0085 16.5997C21.0014 16.5762 20.9898 16.5393 20.9732 16.491C20.9399 16.3942 20.8866 16.2523 20.8091 16.0802C20.6538 15.7351 20.4041 15.2752 20.0283 14.8171C19.2857 13.9115 18.0445 13 16.0002 13C13.9558 13 12.7146 13.9115 11.972 14.8171C11.5963 15.2752 11.3466 15.7351 11.1912 16.0802C11.1137 16.2523 11.0605 16.3942 11.0272 16.491C11.0105 16.5393 10.9989 16.5762 10.9918 16.5997L10.9844 16.6247ZM16.0002 15C14.6195 15 13.5002 16.1193 13.5002 17.5C13.5002 18.8807 14.6195 20 16.0002 20C17.381 20 18.5002 18.8807 18.5002 17.5C18.5002 16.1193 17.381 15 16.0002 15ZM14.5002 17.5C14.5002 16.6716 15.1718 16 16.0002 16C16.8287 16 17.5002 16.6716 17.5002 17.5C17.5002 18.3284 16.8287 19 16.0002 19C15.1718 19 14.5002 18.3284 14.5002 17.5Z" fill="#00718A"/>
</svg>
