<svg width="32" height="32" viewBox="0 0 32 32" fill="none" xmlns="http://www.w3.org/2000/svg">
<rect width="32" height="32" rx="16" fill="#E6E6E7"/>
<path d="M12.5 11C11.6716 11 11 11.6716 11 12.5V19.5C11 20.3284 11.6716 21 12.5 21H19.5C20.3284 21 20.9999 20.3284 20.9999 19.5V17.2692C20.9999 16.9931 21.2238 16.7692 21.4999 16.7692C21.7761 16.7692 21.9999 16.9931 21.9999 17.2692V19.5C21.9999 20.8807 20.8807 22 19.5 22H12.5C11.1193 22 10 20.8807 10 19.5V12.5C10 11.1193 11.1193 10 12.5 10H14.7307C15.0069 10 15.2307 10.2239 15.2307 10.5C15.2307 10.7761 15.0069 11 14.7307 11H12.5ZM16.7693 10.5C16.7693 10.2239 16.9931 10 17.2693 10H21.5C21.7761 10 22 10.2239 22 10.5V14.7308C22 15.0069 21.7761 15.2308 21.5 15.2308C21.2239 15.2308 21 15.0069 21 14.7308V11.7071L17.6228 15.0843C17.4275 15.2796 17.111 15.2796 16.9157 15.0843C16.7204 14.8891 16.7204 14.5725 16.9157 14.3772L20.2929 11H17.2693C16.9931 11 16.7693 10.7761 16.7693 10.5Z" fill="#00718A"/>
</svg>
