<svg width="17" height="16" viewBox="0 0 17 16" fill="none" xmlns="http://www.w3.org/2000/svg">
<path d="M4.78662 2L15.4533 12.6667" stroke="#8C939D" stroke-width="2" stroke-linecap="round"/>
<path fill-rule="evenodd" clip-rule="evenodd" d="M10.0545 3.0849C10.2345 2.56279 10.8037 2.2855 11.3259 2.46555C13.4978 3.21457 15.3128 4.88061 16.5501 7.03565C16.9117 7.66551 16.9979 8.40526 16.8088 9.08733C16.6612 9.61954 16.1102 9.93137 15.5779 9.78382C15.0457 9.63627 14.7339 9.08522 14.8815 8.55301C14.9296 8.37946 14.9075 8.19149 14.8157 8.03148C13.7688 6.20809 12.3013 4.91755 10.6738 4.35628C10.1517 4.17622 9.87442 3.60701 10.0545 3.0849ZM7.1422 3.16865C7.35004 3.68033 7.10373 4.26362 6.59204 4.47146C5.08763 5.08255 3.73728 6.3242 2.75704 8.03153C2.63632 8.2418 2.63632 8.5001 2.75705 8.71037C4.19618 11.2169 6.41197 12.7043 8.78634 12.7043C10.4741 12.7043 12.0673 11.9595 13.3718 10.6323C13.759 10.2385 14.3921 10.233 14.786 10.6201C15.1799 11.0073 15.1853 11.6404 14.7982 12.0343C13.1828 13.6778 11.0968 14.7043 8.78634 14.7043C5.51273 14.7043 2.71679 12.657 1.02259 9.70619C0.547811 8.87925 0.547808 7.86266 1.02258 7.03572C2.18212 5.0161 3.84757 3.42755 5.83938 2.61849C6.35107 2.41065 6.93436 2.65696 7.1422 3.16865Z" fill="#8C939D"/>
<path d="M10.7263 7.88358C10.8322 8.3048 10.798 8.74903 10.6291 9.14914C10.4601 9.54925 10.1655 9.88348 9.78977 10.1013C9.41404 10.3192 8.9776 10.4088 8.54643 10.3566C8.11525 10.3045 7.71277 10.1134 7.39982 9.8122C7.08687 9.51105 6.88046 9.1162 6.81178 8.68735C6.74311 8.2585 6.8159 7.81894 7.01915 7.43512C7.22241 7.0513 7.54508 6.74407 7.9384 6.55987C8.33173 6.37567 8.77432 6.32452 9.19929 6.41413" stroke="#8C939D" stroke-width="2"/>
</svg>
