<svg width="14" height="14" viewBox="0 0 14 14" fill="none" xmlns="http://www.w3.org/2000/svg">
<path d="M10.1382 5.8049C10.3986 5.54455 10.3986 5.12244 10.1382 4.86209C9.87788 4.60174 9.45577 4.60174 9.19543 4.86209L6.3335 7.72402L4.8049 6.19543C4.54455 5.93508 4.12244 5.93508 3.86209 6.19543C3.60174 6.45577 3.60174 6.87788 3.86209 7.13823L5.86209 9.13823C6.12244 9.39858 6.54455 9.39858 6.8049 9.13823L10.1382 5.8049ZM7.00016 0.333496C3.31826 0.333496 0.333496 3.31826 0.333496 7.00016C0.333496 10.6821 3.31826 13.6668 7.00016 13.6668C10.6821 13.6668 13.6668 10.6821 13.6668 7.00016C13.6668 3.31826 10.6821 0.333496 7.00016 0.333496ZM1.66683 7.00016C1.66683 4.05464 4.05464 1.66683 7.00016 1.66683C9.94568 1.66683 12.3335 4.05464 12.3335 7.00016C12.3335 9.94568 9.94568 12.3335 7.00016 12.3335C4.05464 12.3335 1.66683 9.94568 1.66683 7.00016Z" fill="#00718A"/>
</svg>
